<?xml version="1.0" encoding="UTF-8"?>
<svg xmlns="http://www.w3.org/2000/svg" xmlns:xlink="http://www.w3.org/1999/xlink" width="50px" height="50px" viewBox="0 0 50 50" version="1.1">
<g id="surface1">
<path style=" stroke:none;fill-rule:nonzero;fill:rgb(100%,100%,100%);fill-opacity:1;" d="M 42.355469 8.808594 C 39.117188 7.292969 35.65625 6.191406 32.039062 5.566406 C 31.59375 6.371094 31.074219 7.449219 30.71875 8.308594 C 26.871094 7.730469 23.0625 7.730469 19.285156 8.308594 C 18.929688 7.449219 18.398438 6.371094 17.949219 5.566406 C 14.328125 6.191406 10.863281 7.296875 7.625 8.816406 C 1.097656 18.679688 -0.671875 28.300781 0.210938 37.785156 C 4.542969 41.019531 8.738281 42.980469 12.863281 44.265625 C 13.882812 42.867188 14.789062 41.375 15.574219 39.804688 C 14.082031 39.238281 12.65625 38.539062 11.304688 37.726562 C 11.664062 37.464844 12.015625 37.1875 12.351562 36.902344 C 20.578125 40.75 29.519531 40.75 37.648438 36.902344 C 37.988281 37.1875 38.339844 37.464844 38.695312 37.726562 C 37.339844 38.542969 35.910156 39.242188 34.417969 39.808594 C 35.203125 41.375 36.105469 42.871094 37.128906 44.269531 C 41.257812 42.984375 45.457031 41.023438 49.789062 37.785156 C 50.824219 26.789062 48.015625 17.257812 42.355469 8.808594 Z M 16.695312 31.953125 C 14.222656 31.953125 12.199219 29.648438 12.199219 26.839844 C 12.199219 24.03125 14.179688 21.722656 16.695312 21.722656 C 19.207031 21.722656 21.230469 24.027344 21.1875 26.839844 C 21.191406 29.648438 19.207031 31.953125 16.695312 31.953125 Z M 33.304688 31.953125 C 30.835938 31.953125 28.8125 29.648438 28.8125 26.839844 C 28.8125 24.03125 30.792969 21.722656 33.304688 21.722656 C 35.820312 21.722656 37.84375 24.027344 37.800781 26.839844 C 37.800781 29.648438 35.820312 31.953125 33.304688 31.953125 Z M 33.304688 31.953125 "/>
</g>
</svg>
