<?xml version="1.0" encoding="UTF-8"?>
<svg xmlns="http://www.w3.org/2000/svg" xmlns:xlink="http://www.w3.org/1999/xlink" width="75px" height="50px" viewBox="0 0 75 50" version="1.1">
<g id="surface1">
<path style=" stroke:none;fill-rule:nonzero;fill:rgb(15.686275%,15.686275%,15.686275%);fill-opacity:1;" d="M 60.167969 13.539062 C 59.625 11.488281 58.019531 9.875 55.984375 9.328125 C 52.292969 8.332031 37.5 8.332031 37.5 8.332031 C 37.5 8.332031 22.707031 8.332031 19.015625 9.328125 C 16.980469 9.875 15.375 11.488281 14.832031 13.539062 C 13.84375 17.253906 13.84375 25 13.84375 25 C 13.84375 25 13.84375 32.75 14.832031 36.460938 C 15.375 38.511719 16.980469 40.125 19.015625 40.671875 C 22.707031 41.667969 37.5 41.667969 37.5 41.667969 C 37.5 41.667969 52.292969 41.667969 55.984375 40.671875 C 58.019531 40.125 59.625 38.511719 60.167969 36.460938 C 61.15625 32.746094 61.15625 25 61.15625 25 C 61.15625 25 61.15625 17.253906 60.167969 13.539062 "/>
<path style=" stroke:none;fill-rule:nonzero;fill:rgb(100%,100%,100%);fill-opacity:1;" d="M 32.660156 32.035156 L 45.027344 25 L 32.660156 17.964844 Z M 32.660156 32.035156 "/>
</g>
</svg>
